<svg width="23" height="23" viewBox="0 0 23 23" fill="none" xmlns="http://www.w3.org/2000/svg">
<path fill-rule="evenodd" clip-rule="evenodd" d="M12.9296 3.31481C12.4384 3.16471 11.918 3.08423 11.3804 3.08423C8.68089 3.08423 6.41305 5.11404 6.11494 7.79707L5.87614 9.94628C5.75363 11.0488 5.39477 12.112 4.82403 13.0632L4.27584 13.9769C3.82051 14.7357 3.59284 15.1152 3.61348 15.4274C3.63357 15.7313 3.79108 16.0095 4.04136 16.1831C4.29844 16.3614 4.74094 16.3614 5.62595 16.3614H17.1349C18.0199 16.3614 18.4624 16.3614 18.7195 16.1831C18.9698 16.0095 19.1273 15.7313 19.1474 15.4274C19.168 15.1152 18.9404 14.7357 18.485 13.9769L18.485 13.9768L17.9368 13.0632C17.5196 12.3678 17.2156 11.6126 17.0344 10.8259C14.3467 10.8065 12.1739 8.62164 12.1739 5.92934C12.1739 4.96796 12.451 4.07129 12.9296 3.31481ZM15.4338 4.97037C15.2686 5.25174 15.1739 5.57948 15.1739 5.92934C15.1739 6.83009 15.8018 7.58419 16.6438 7.77784C16.521 6.70828 16.0851 5.74328 15.4338 4.97037Z" fill="white"/>
<path d="M8.53532 16.3614C8.53532 16.735 8.60891 17.105 8.75189 17.4502C8.89488 17.7954 9.10444 18.109 9.36864 18.3732C9.63283 18.6374 9.94647 18.847 10.2917 18.9899C10.6368 19.1329 11.0068 19.2065 11.3804 19.2065C11.7541 19.2065 12.124 19.1329 12.4692 18.9899C12.8144 18.847 13.128 18.6374 13.3922 18.3732C13.6564 18.109 13.866 17.7954 14.009 17.4502C14.1519 17.105 14.2255 16.735 14.2255 16.3614L11.3804 16.3614H8.53532Z" fill="white"/>
<path d="M17.0706 8.32607C18.3943 8.32607 19.4674 7.25301 19.4674 5.92933C19.4674 4.60565 18.3943 3.53259 17.0706 3.53259C15.747 3.53259 14.6739 4.60565 14.6739 5.92933C14.6739 7.25301 15.747 8.32607 17.0706 8.32607Z" fill="#FFC30D" stroke="#FFC30D"/>
</svg>
