<svg width="11" height="12" viewBox="0 0 11 12" fill="none" xmlns="http://www.w3.org/2000/svg">
<path fill-rule="evenodd" clip-rule="evenodd" d="M3.02847 0.698547H7.50112C9.24994 0.698547 10.421 1.92582 10.421 3.75202V7.96673C10.421 9.78829 9.24994 11.0161 7.50112 11.0161H3.02847C1.27965 11.0161 0.103455 9.78829 0.103455 7.96673V3.75202C0.103455 1.92582 1.27965 0.698547 3.02847 0.698547ZM7.10905 7.8228C7.23802 7.8228 7.36699 7.75573 7.43921 7.63192C7.55271 7.45085 7.4908 7.21355 7.30509 7.10057L5.46857 6.00691V3.62305C5.46857 3.41206 5.29833 3.23614 5.08166 3.23614C4.87015 3.23614 4.69475 3.41206 4.69475 3.62305V6.22874C4.69475 6.36287 4.76697 6.49184 4.88563 6.5589L6.90786 7.76605C6.96977 7.80732 7.04199 7.8228 7.10905 7.8228Z" fill="#FFC30D"/>
</svg>
