<svg width="14" height="18" viewBox="0 0 14 18" fill="none" xmlns="http://www.w3.org/2000/svg">
<path d="M4.11414 6.50036C4.11414 5.51094 2.79816 5.24869 2.44903 6.17446C1.60449 8.41387 0.989136 10.4172 0.989136 11.5003C0.989136 14.952 3.78736 17.7503 7.23914 17.7503C10.6909 17.7503 13.4891 14.952 13.4891 11.5003C13.4891 10.3366 12.7789 8.11083 11.8372 5.67123C10.6174 2.51099 10.0074 0.930864 9.25454 0.845755C9.01363 0.818522 8.75081 0.867485 8.53587 0.979643C7.86414 1.33016 7.86414 3.05356 7.86414 6.50036C7.86414 7.5359 7.02467 8.37536 5.98914 8.37536C4.9536 8.37536 4.11414 7.5359 4.11414 6.50036Z" fill="#FFC30D"/>
</svg>
