<svg width="24" height="24" viewBox="0 0 24 24" fill="none" xmlns="http://www.w3.org/2000/svg">
<path fill-rule="evenodd" clip-rule="evenodd" d="M2.22836 5.85195C2 6.40326 2 7.10218 2 8.5V9.25C2 9.66421 2.33579 10 2.75 10H3C4.10457 10 5 10.8954 5 12C5 13.1046 4.10457 14 3 14H2.75C2.33579 14 2 14.3358 2 14.75V15.5C2 16.8978 2 17.5967 2.22836 18.1481C2.53284 18.8831 3.11687 19.4672 3.85195 19.7716C4.40326 20 5.10218 20 6.5 20H17.5C18.8978 20 19.5967 20 20.1481 19.7716C20.8831 19.4672 21.4672 18.8831 21.7716 18.1481C22 17.5967 22 16.8978 22 15.5V14.75C22 14.3358 21.6642 14 21.25 14H21C19.8954 14 19 13.1046 19 12C19 10.8954 19.8954 10 21 10H21.25C21.6642 10 22 9.66421 22 9.25V8.5C22 7.10218 22 6.40326 21.7716 5.85195C21.4672 5.11687 20.8831 4.53284 20.1481 4.22836C19.5967 4 18.8978 4 17.5 4H6.5C5.10218 4 4.40326 4 3.85195 4.22836C3.11687 4.53284 2.53284 5.11687 2.22836 5.85195ZM9.854 8.3L7.654 13.503V14.603H9.964V16H11.174V14.603H11.746V13.503H11.174V8.3H9.854ZM9.964 10.654V13.503H8.765L9.964 10.654ZM13.5113 13.635L13.8853 12.931L15.0623 16H16.3053L14.6223 11.732L16.3053 8.3H15.1173L13.5113 11.655V8.3H12.3013V16H13.5113V13.635Z" fill="white"/>
</svg>
