<svg width="25" height="25" viewBox="0 0 25 25" fill="none" xmlns="http://www.w3.org/2000/svg">
<g opacity="0.4">
<path d="M3.125 11.5333C3.125 10.4132 3.125 9.85319 3.34299 9.42536C3.53473 9.04904 3.84069 8.74308 4.21702 8.55133C4.64484 8.33334 5.2049 8.33334 6.325 8.33334H7.8762C8.42713 8.33334 8.70259 8.33334 8.95785 8.40202C9.18403 8.46287 9.39775 8.56297 9.58929 8.69777C9.80547 8.8499 9.98181 9.06152 10.3345 9.48475L11.9792 11.4583H14.5083C15.6284 11.4583 16.1885 11.4583 16.6163 11.6763C16.9926 11.8681 17.2986 12.174 17.4903 12.5504C17.7083 12.9782 17.7083 13.5382 17.7083 14.6583V17.6333C17.7083 18.7534 17.7083 19.3135 17.4903 19.7413C17.2986 20.1176 16.9926 20.4236 16.6163 20.6154C16.1885 20.8333 15.6284 20.8333 14.5083 20.8333H9.525C7.28479 20.8333 6.16469 20.8333 5.30904 20.3974C4.55639 20.0139 3.94447 19.402 3.56097 18.6493C3.125 17.7937 3.125 16.6736 3.125 14.4333V11.5333Z" fill="white"/>
<path d="M7.29169 7.36666C7.29169 6.24655 7.29169 5.6865 7.50967 5.25868C7.70142 4.88235 8.00738 4.57639 8.38371 4.38464C8.81153 4.16666 9.37158 4.16666 10.4917 4.16666H12.0429C12.5938 4.16666 12.8693 4.16666 13.1245 4.23533C13.3507 4.29618 13.5644 4.39629 13.756 4.53108C13.9722 4.68322 14.1485 4.89483 14.5012 5.31807L16.1459 7.29166H18.675C19.7951 7.29166 20.3552 7.29166 20.783 7.50964C21.1593 7.70139 21.4653 8.00735 21.657 8.38368C21.875 8.8115 21.875 9.37155 21.875 10.4917V13.4667C21.875 14.5868 21.875 15.1468 21.657 15.5746C21.4653 15.951 21.1593 16.2569 20.783 16.4487C20.3552 16.6667 19.7951 16.6667 18.675 16.6667H10.4917C9.37158 16.6667 8.81153 16.6667 8.38371 16.4487C8.00738 16.2569 7.70142 15.951 7.50967 15.5746C7.29169 15.1468 7.29169 14.5868 7.29169 13.4667V7.36666Z" fill="white"/>
<path d="M6.25 7.29166V15.7083C6.25 16.8129 7.14543 17.7083 8.25 17.7083H20.8333" stroke="#1E1E1E" stroke-width="2"/>
</g>
</svg>
