<svg width="25" height="25" viewBox="0 0 25 25" fill="none" xmlns="http://www.w3.org/2000/svg">
<g opacity="0.4">
<path fill-rule="evenodd" clip-rule="evenodd" d="M8.58736 2.80191L12.8602 2.13046C16.0808 1.62437 17.6911 1.37132 18.7414 2.26944C19.7916 3.16756 19.7916 4.79761 19.7916 8.05772V11.4996H13.5389L16.4058 7.91593L14.8441 6.66654L10.6774 11.8749L10.1777 12.4996L10.6774 13.1243L14.8441 18.3326L16.4058 17.0832L13.5389 13.4996H19.7916V16.9414C19.7916 20.2015 19.7916 21.8316 18.7414 22.7297C17.6911 23.6278 16.0808 23.3748 12.8602 22.8687L8.58736 22.1972C6.97463 21.9438 6.16826 21.8171 5.68829 21.2558C5.20831 20.6945 5.20831 19.8782 5.20831 18.2457V6.75342C5.20831 5.12089 5.20831 4.30463 5.68829 3.74334C6.16826 3.18205 6.97463 3.05534 8.58736 2.80191Z" fill="white"/>
</g>
</svg>
