<svg width="25" height="25" viewBox="0 0 25 25" fill="none" xmlns="http://www.w3.org/2000/svg">
<g opacity="0.4">
<path d="M4.63614 14.4877L11.8784 21.2911C12.1418 21.5385 12.2734 21.6622 12.4307 21.6842C12.4767 21.6906 12.5233 21.6906 12.5693 21.6842C12.7266 21.6622 12.8583 21.5385 13.1216 21.2911L20.3639 14.4877C22.4016 12.5735 22.649 9.42355 20.9352 7.21466L20.613 6.79932C18.5628 4.15686 14.4476 4.60002 13.007 7.61839C12.8035 8.04475 12.1966 8.04476 11.9931 7.61839C10.5525 4.60002 6.43723 4.15686 4.38704 6.79932L4.0648 7.21466C2.35101 9.42355 2.59846 12.5735 4.63614 14.4877Z" fill="white" stroke="white" stroke-width="2"/>
</g>
</svg>
