<svg width="25" height="25" viewBox="0 0 25 25" fill="none" xmlns="http://www.w3.org/2000/svg">
<g opacity="0.4">
<path fill-rule="evenodd" clip-rule="evenodd" d="M2.37134 5.88399C2.08331 6.49298 2.08331 7.28004 2.08331 8.85416V9.63541C2.08331 10.0669 2.43309 10.4167 2.86456 10.4167H3.12498C4.27557 10.4167 5.20831 11.3494 5.20831 12.5C5.20831 13.6506 4.27557 14.5833 3.12498 14.5833H2.86456C2.43309 14.5833 2.08331 14.9331 2.08331 15.3646V16.1458C2.08331 17.7199 2.08331 18.507 2.37134 19.116C2.6681 19.7434 3.17322 20.2485 3.80065 20.5453C4.40964 20.8333 5.1967 20.8333 6.77082 20.8333H18.2291C19.8033 20.8333 20.5903 20.8333 21.1993 20.5453C21.8267 20.2485 22.3319 19.7434 22.6286 19.116C22.9166 18.507 22.9166 17.7199 22.9166 16.1458V15.3646C22.9166 14.9331 22.5669 14.5833 22.1354 14.5833H21.875C20.7244 14.5833 19.7916 13.6506 19.7916 12.5C19.7916 11.3494 20.7244 10.4167 21.875 10.4167H22.1354C22.5669 10.4167 22.9166 10.0669 22.9166 9.63541V8.85416C22.9166 7.28004 22.9166 6.49298 22.6286 5.88399C22.3319 5.25656 21.8267 4.75144 21.1993 4.45469C20.5903 4.16666 19.8033 4.16666 18.2291 4.16666H6.77081C5.1967 4.16666 4.40964 4.16666 3.80065 4.45469C3.17322 4.75144 2.6681 5.25656 2.37134 5.88399ZM12.4432 10.4228C12.301 10.4542 12.2134 10.6808 12.0383 11.1339C11.9387 11.3916 11.8889 11.5204 11.7957 11.608C11.7696 11.6326 11.7412 11.6545 11.711 11.6734C11.6033 11.7408 11.4688 11.7532 11.2 11.7782C10.7448 11.8205 10.5172 11.8417 10.4477 11.9764C10.4333 12.0042 10.4235 12.0344 10.4187 12.0657C10.3957 12.2166 10.563 12.3745 10.8976 12.6905L10.9906 12.7782C11.147 12.9259 11.2252 12.9998 11.2705 13.0919C11.2976 13.1472 11.3158 13.2068 11.3243 13.2682C11.3385 13.3706 11.3156 13.4777 11.2698 13.692L11.2535 13.7685C11.1713 14.1528 11.1302 14.3449 11.1815 14.4394C11.2276 14.5242 11.3124 14.5785 11.4061 14.5832C11.5105 14.5883 11.6575 14.464 11.9515 14.2154L11.9515 14.2154C12.1452 14.0516 12.2421 13.9697 12.3496 13.9377C12.4479 13.9084 12.5521 13.9084 12.6503 13.9377C12.7579 13.9697 12.8547 14.0516 13.0484 14.2154L13.0484 14.2154C13.3425 14.464 13.4895 14.5883 13.5938 14.5832C13.6876 14.5785 13.7724 14.5242 13.8185 14.4394C13.8697 14.3449 13.8287 14.1528 13.7465 13.7685L13.7301 13.692C13.6843 13.4777 13.6614 13.3706 13.6756 13.2682C13.6842 13.2068 13.7024 13.1472 13.7295 13.0919C13.7747 12.9998 13.853 12.9259 14.0094 12.7782L14.0094 12.7782L14.1023 12.6905C14.4369 12.3745 14.6043 12.2166 14.5812 12.0657C14.5764 12.0344 14.5667 12.0042 14.5523 11.9764C14.4828 11.8417 14.2552 11.8205 13.8 11.7782C13.5311 11.7532 13.3967 11.7408 13.289 11.6734C13.2588 11.6545 13.2304 11.6326 13.2043 11.608C13.1111 11.5204 13.0613 11.3916 12.9617 11.1339C12.7866 10.6808 12.699 10.4542 12.5567 10.4228C12.5193 10.4146 12.4806 10.4146 12.4432 10.4228Z" fill="white"/>
</g>
</svg>
